<?xml version="1.0" encoding="utf-8" standalone="no"?>
<!DOCTYPE svg PUBLIC "-//W3C//DTD SVG 1.1//EN"
  "http://www.w3.org/Graphics/SVG/1.1/DTD/svg11.dtd">
<svg xmlns:xlink="http://www.w3.org/1999/xlink" width="856.4475pt" height="352.798125pt" viewBox="0 0 856.4475 352.798125" xmlns="http://www.w3.org/2000/svg" version="1.1">
 <metadata>
  <rdf:RDF xmlns:dc="http://purl.org/dc/elements/1.1/" xmlns:cc="http://creativecommons.org/ns#" xmlns:rdf="http://www.w3.org/1999/02/22-rdf-syntax-ns#">
   <cc:Work>
    <dc:type rdf:resource="http://purl.org/dc/dcmitype/StillImage"/>
    <dc:date>2026-07-12T02:41:55.895325</dc:date>
    <dc:format>image/svg+xml</dc:format>
    <dc:creator>
     <cc:Agent>
      <dc:title>Matplotlib v3.11.0, https://matplotlib.org/</dc:title>
     </cc:Agent>
    </dc:creator>
   </cc:Work>
  </rdf:RDF>
 </metadata>
 <defs>
  <style type="text/css">*{stroke-linejoin: round; stroke-linecap: butt}</style>
 </defs>
 <g id="figure_1">
  <g id="patch_1">
   <path d="M 0 352.798125 
L 856.4475 352.798125 
L 856.4475 0 
L 0 0 
z
" style="fill: #ffffff"/>
  </g>
  <g id="axes_1">
   <g id="patch_2">
    <path d="M 49.2875 312.597187 
L 849.2475 312.597187 
L 849.2475 26.877187 
L 49.2875 26.877187 
z
" style="fill: #ffffff"/>
   </g>
   <g id="FillBetweenPolyCollection_1">
    <defs>
     <path id="m10990826f7" d="M 85.649318 -40.200938 
L 85.649318 -201.347017 
L 88.558264 -198.775538 
L 91.467209 -177.632258 
L 94.376155 -155.060377 
L 97.2851 -164.203418 
L 100.194045 -188.489617 
L 103.102991 -181.918058 
L 106.011936 -156.774697 
L 108.920882 -131.631338 
L 111.829827 -120.773977 
L 114.738773 -143.917297 
L 117.647718 -169.060657 
L 120.556664 -165.632017 
L 123.465609 -166.203457 
L 126.374555 -167.060617 
L 129.2835 -155.346098 
L 132.192445 -158.774737 
L 135.101391 -162.774817 
L 138.010336 -165.060577 
L 140.919282 -168.774937 
L 143.828227 -195.632618 
L 146.737173 -201.918457 
L 149.646118 -152.488898 
L 152.555064 -134.488538 
L 155.464009 -161.917657 
L 158.372955 -160.489058 
L 161.2819 -141.917258 
L 164.190845 -157.631857 
L 167.099791 -175.346497 
L 170.008736 -176.203657 
L 172.917682 -162.489097 
L 175.826627 -166.489178 
L 178.735573 -168.203497 
L 181.644518 -158.489017 
L 184.553464 -173.346458 
L 187.462409 -170.774978 
L 190.371355 -158.203297 
L 193.2803 -163.631978 
L 196.189245 -167.632058 
L 199.098191 -177.060817 
L 202.007136 -177.917977 
L 204.916082 -169.346378 
L 207.825027 -167.917777 
L 210.733973 -174.489338 
L 213.642918 -181.918058 
L 216.551864 -183.918097 
L 219.460809 -182.489497 
L 222.369755 -157.346137 
L 225.2787 -154.774657 
L 228.187645 -180.775178 
L 231.096591 -182.203778 
L 234.005536 -179.918017 
L 236.914482 -179.632297 
L 239.823427 -161.917657 
L 242.732373 -156.203258 
L 245.641318 -174.775057 
L 248.550264 -183.632378 
L 251.459209 -182.203778 
L 254.368155 -184.775258 
L 257.2771 -180.203737 
L 260.186045 -179.918017 
L 263.094991 -172.489298 
L 266.003936 -175.917937 
L 268.912882 -188.203898 
L 271.821827 -175.632217 
L 274.730773 -165.346297 
L 277.639718 -156.488977 
L 280.548664 -167.060617 
L 283.457609 -193.061138 
L 286.366555 -207.918577 
L 289.2755 -189.061058 
L 292.184445 -176.775097 
L 295.093391 -185.060978 
L 298.002336 -179.060857 
L 300.911282 -176.203657 
L 303.820227 -179.632297 
L 306.729173 -172.489298 
L 309.638118 -147.631657 
L 312.547064 -149.917417 
L 315.456009 -159.631897 
L 318.364955 -166.774897 
L 321.2739 -176.775097 
L 324.182845 -171.917857 
L 327.091791 -180.203737 
L 330.000736 -182.775217 
L 332.909682 -208.204297 
L 335.818627 -227.061818 
L 338.727573 -200.204138 
L 341.636518 -186.489577 
L 344.545464 -195.918338 
L 347.454409 -193.346857 
L 350.363355 -151.631737 
L 353.2723 -149.060258 
L 356.181245 -174.203617 
L 359.090191 -166.489178 
L 361.999136 -144.203017 
L 364.908082 -145.631617 
L 367.817027 -183.632378 
L 370.725973 -192.489698 
L 373.634918 -157.631857 
L 376.543864 -141.060097 
L 379.452809 -159.631897 
L 382.361755 -171.060698 
L 385.2707 -161.060497 
L 388.179645 -166.774897 
L 391.088591 -169.917817 
L 393.997536 -173.060737 
L 396.906482 -159.060457 
L 399.815427 -143.060137 
L 402.724373 -153.917497 
L 405.633318 -146.488777 
L 408.542264 -159.917617 
L 411.451209 -173.917898 
L 414.360155 -175.060777 
L 417.2691 -167.632058 
L 420.178045 -155.060377 
L 423.086991 -174.489338 
L 425.995936 -182.775217 
L 428.904882 -171.632137 
L 431.813827 -170.489258 
L 434.722773 -162.203377 
L 437.631718 -164.489137 
L 440.540664 -175.632217 
L 443.449609 -173.060737 
L 446.358555 -165.060577 
L 449.2675 -161.060497 
L 452.176445 -143.345857 
L 455.085391 -144.488737 
L 457.994336 -158.489017 
L 460.903282 -147.631657 
L 463.812227 -135.345697 
L 466.721173 -144.488737 
L 469.630118 -162.774817 
L 472.539064 -171.060698 
L 475.448009 -181.060897 
L 478.356955 -181.918058 
L 481.2659 -182.775217 
L 484.174845 -178.775137 
L 487.083791 -154.774657 
L 489.992736 -145.060178 
L 492.901682 -159.346177 
L 495.810627 -167.346338 
L 498.719573 -166.203457 
L 501.628518 -161.917657 
L 504.537464 -153.917497 
L 507.446409 -144.203017 
L 510.355355 -148.774537 
L 513.2643 -165.632017 
L 516.173245 -169.632098 
L 519.082191 -152.488898 
L 521.991136 -148.488817 
L 524.900082 -152.774617 
L 527.809027 -147.631657 
L 530.717973 -151.346017 
L 533.626918 -149.060258 
L 536.535864 -149.060258 
L 539.444809 -153.631777 
L 542.353755 -153.917497 
L 545.2627 -162.774817 
L 548.171645 -167.632058 
L 551.080591 -156.488977 
L 553.989536 -157.060417 
L 556.898482 -154.203217 
L 559.807427 -153.060338 
L 562.716373 -169.632098 
L 565.625318 -164.203418 
L 568.534264 -142.774417 
L 571.443209 -134.774258 
L 574.352155 -146.488777 
L 577.2611 -155.631818 
L 580.170045 -161.631937 
L 583.078991 -175.060777 
L 585.987936 -170.203538 
L 588.896882 -151.346017 
L 591.805827 -145.917338 
L 594.714773 -151.631737 
L 597.623718 -159.631897 
L 600.532664 -148.774537 
L 603.441609 -162.489097 
L 606.350555 -169.632098 
L 609.2595 -153.917497 
L 612.168445 -164.489137 
L 615.077391 -158.774737 
L 617.986336 -166.203457 
L 620.895282 -177.346538 
L 623.804227 -155.917537 
L 626.713173 -135.345697 
L 629.622118 -145.345897 
L 632.531064 -163.917697 
L 635.440009 -160.774777 
L 638.348955 -165.060577 
L 641.2579 -165.632017 
L 644.166845 -143.060137 
L 647.075791 -147.631657 
L 649.984736 -176.489377 
L 652.893682 -183.060937 
L 655.802627 -158.489017 
L 658.711573 -149.631697 
L 661.620518 -149.060258 
L 664.529464 -154.774657 
L 667.438409 -161.060497 
L 670.347355 -154.774657 
L 673.2563 -150.488857 
L 676.165245 -154.203217 
L 679.074191 -169.060657 
L 681.983136 -173.632178 
L 684.892082 -177.060817 
L 687.801027 -163.346258 
L 690.709973 -163.060537 
L 693.618918 -175.060777 
L 696.527864 -157.346137 
L 699.436809 -147.345937 
L 702.345755 -151.631737 
L 705.2547 -161.917657 
L 708.163645 -168.489217 
L 711.072591 -161.060497 
L 713.981536 -156.488977 
L 716.890482 -162.203377 
L 719.799427 -177.060817 
L 722.708373 -182.775217 
L 725.617318 -173.917898 
L 728.526264 -165.060577 
L 731.435209 -149.917417 
L 734.344155 -157.917577 
L 737.2531 -184.489537 
L 740.162045 -178.775137 
L 743.070991 -175.060777 
L 745.979936 -171.917857 
L 748.888882 -170.774978 
L 751.797827 -181.346617 
L 754.706773 -178.203697 
L 757.615718 -168.489217 
L 760.524664 -176.203657 
L 763.433609 -183.918097 
L 766.342555 -170.774978 
L 769.2515 -165.060577 
L 772.160445 -169.346378 
L 775.069391 -167.060617 
L 777.978336 -171.060698 
L 780.887282 -169.917817 
L 783.796227 -156.774697 
L 786.705173 -163.631978 
L 789.614118 -180.775178 
L 792.523064 -191.918258 
L 795.432009 -179.632297 
L 798.340955 -160.774777 
L 801.2499 -171.060698 
L 804.158845 -180.489458 
L 807.067791 -177.632258 
L 809.976736 -180.489458 
L 812.885682 -161.060497 
L 812.885682 -40.200938 
L 812.885682 -40.200938 
L 809.976736 -40.200938 
L 807.067791 -40.200938 
L 804.158845 -40.200938 
L 801.2499 -40.200938 
L 798.340955 -40.200938 
L 795.432009 -40.200938 
L 792.523064 -40.200938 
L 789.614118 -40.200938 
L 786.705173 -40.200938 
L 783.796227 -40.200938 
L 780.887282 -40.200938 
L 777.978336 -40.200938 
L 775.069391 -40.200938 
L 772.160445 -40.200938 
L 769.2515 -40.200938 
L 766.342555 -40.200938 
L 763.433609 -40.200938 
L 760.524664 -40.200938 
L 757.615718 -40.200938 
L 754.706773 -40.200938 
L 751.797827 -40.200938 
L 748.888882 -40.200938 
L 745.979936 -40.200938 
L 743.070991 -40.200938 
L 740.162045 -40.200938 
L 737.2531 -40.200938 
L 734.344155 -40.200938 
L 731.435209 -40.200938 
L 728.526264 -40.200938 
L 725.617318 -40.200938 
L 722.708373 -40.200938 
L 719.799427 -40.200938 
L 716.890482 -40.200938 
L 713.981536 -40.200938 
L 711.072591 -40.200938 
L 708.163645 -40.200938 
L 705.2547 -40.200938 
L 702.345755 -40.200938 
L 699.436809 -40.200938 
L 696.527864 -40.200938 
L 693.618918 -40.200938 
L 690.709973 -40.200938 
L 687.801027 -40.200938 
L 684.892082 -40.200938 
L 681.983136 -40.200938 
L 679.074191 -40.200938 
L 676.165245 -40.200938 
L 673.2563 -40.200938 
L 670.347355 -40.200938 
L 667.438409 -40.200938 
L 664.529464 -40.200938 
L 661.620518 -40.200938 
L 658.711573 -40.200938 
L 655.802627 -40.200938 
L 652.893682 -40.200938 
L 649.984736 -40.200938 
L 647.075791 -40.200938 
L 644.166845 -40.200938 
L 641.2579 -40.200938 
L 638.348955 -40.200938 
L 635.440009 -40.200938 
L 632.531064 -40.200938 
L 629.622118 -40.200938 
L 626.713173 -40.200938 
L 623.804227 -40.200938 
L 620.895282 -40.200938 
L 617.986336 -40.200938 
L 615.077391 -40.200938 
L 612.168445 -40.200938 
L 609.2595 -40.200938 
L 606.350555 -40.200938 
L 603.441609 -40.200938 
L 600.532664 -40.200938 
L 597.623718 -40.200938 
L 594.714773 -40.200938 
L 591.805827 -40.200938 
L 588.896882 -40.200938 
L 585.987936 -40.200938 
L 583.078991 -40.200938 
L 580.170045 -40.200938 
L 577.2611 -40.200938 
L 574.352155 -40.200938 
L 571.443209 -40.200938 
L 568.534264 -40.200938 
L 565.625318 -40.200938 
L 562.716373 -40.200938 
L 559.807427 -40.200938 
L 556.898482 -40.200938 
L 553.989536 -40.200938 
L 551.080591 -40.200938 
L 548.171645 -40.200938 
L 545.2627 -40.200938 
L 542.353755 -40.200938 
L 539.444809 -40.200938 
L 536.535864 -40.200938 
L 533.626918 -40.200938 
L 530.717973 -40.200938 
L 527.809027 -40.200938 
L 524.900082 -40.200938 
L 521.991136 -40.200938 
L 519.082191 -40.200938 
L 516.173245 -40.200938 
L 513.2643 -40.200938 
L 510.355355 -40.200938 
L 507.446409 -40.200938 
L 504.537464 -40.200938 
L 501.628518 -40.200938 
L 498.719573 -40.200938 
L 495.810627 -40.200938 
L 492.901682 -40.200938 
L 489.992736 -40.200938 
L 487.083791 -40.200938 
L 484.174845 -40.200938 
L 481.2659 -40.200938 
L 478.356955 -40.200938 
L 475.448009 -40.200938 
L 472.539064 -40.200938 
L 469.630118 -40.200938 
L 466.721173 -40.200938 
L 463.812227 -40.200938 
L 460.903282 -40.200938 
L 457.994336 -40.200938 
L 455.085391 -40.200938 
L 452.176445 -40.200938 
L 449.2675 -40.200938 
L 446.358555 -40.200938 
L 443.449609 -40.200938 
L 440.540664 -40.200938 
L 437.631718 -40.200938 
L 434.722773 -40.200938 
L 431.813827 -40.200938 
L 428.904882 -40.200938 
L 425.995936 -40.200938 
L 423.086991 -40.200938 
L 420.178045 -40.200938 
L 417.2691 -40.200938 
L 414.360155 -40.200938 
L 411.451209 -40.200938 
L 408.542264 -40.200938 
L 405.633318 -40.200938 
L 402.724373 -40.200938 
L 399.815427 -40.200938 
L 396.906482 -40.200938 
L 393.997536 -40.200938 
L 391.088591 -40.200938 
L 388.179645 -40.200938 
L 385.2707 -40.200938 
L 382.361755 -40.200938 
L 379.452809 -40.200938 
L 376.543864 -40.200938 
L 373.634918 -40.200938 
L 370.725973 -40.200938 
L 367.817027 -40.200938 
L 364.908082 -40.200938 
L 361.999136 -40.200938 
L 359.090191 -40.200938 
L 356.181245 -40.200938 
L 353.2723 -40.200938 
L 350.363355 -40.200938 
L 347.454409 -40.200938 
L 344.545464 -40.200938 
L 341.636518 -40.200938 
L 338.727573 -40.200938 
L 335.818627 -40.200938 
L 332.909682 -40.200938 
L 330.000736 -40.200938 
L 327.091791 -40.200938 
L 324.182845 -40.200938 
L 321.2739 -40.200938 
L 318.364955 -40.200938 
L 315.456009 -40.200938 
L 312.547064 -40.200938 
L 309.638118 -40.200938 
L 306.729173 -40.200938 
L 303.820227 -40.200938 
L 300.911282 -40.200938 
L 298.002336 -40.200938 
L 295.093391 -40.200938 
L 292.184445 -40.200938 
L 289.2755 -40.200938 
L 286.366555 -40.200938 
L 283.457609 -40.200938 
L 280.548664 -40.200938 
L 277.639718 -40.200938 
L 274.730773 -40.200938 
L 271.821827 -40.200938 
L 268.912882 -40.200938 
L 266.003936 -40.200938 
L 263.094991 -40.200938 
L 260.186045 -40.200938 
L 257.2771 -40.200938 
L 254.368155 -40.200938 
L 251.459209 -40.200938 
L 248.550264 -40.200938 
L 245.641318 -40.200938 
L 242.732373 -40.200938 
L 239.823427 -40.200938 
L 236.914482 -40.200938 
L 234.005536 -40.200938 
L 231.096591 -40.200938 
L 228.187645 -40.200938 
L 225.2787 -40.200938 
L 222.369755 -40.200938 
L 219.460809 -40.200938 
L 216.551864 -40.200938 
L 213.642918 -40.200938 
L 210.733973 -40.200938 
L 207.825027 -40.200938 
L 204.916082 -40.200938 
L 202.007136 -40.200938 
L 199.098191 -40.200938 
L 196.189245 -40.200938 
L 193.2803 -40.200938 
L 190.371355 -40.200938 
L 187.462409 -40.200938 
L 184.553464 -40.200938 
L 181.644518 -40.200938 
L 178.735573 -40.200938 
L 175.826627 -40.200938 
L 172.917682 -40.200938 
L 170.008736 -40.200938 
L 167.099791 -40.200938 
L 164.190845 -40.200938 
L 161.2819 -40.200938 
L 158.372955 -40.200938 
L 155.464009 -40.200938 
L 152.555064 -40.200938 
L 149.646118 -40.200938 
L 146.737173 -40.200938 
L 143.828227 -40.200938 
L 140.919282 -40.200938 
L 138.010336 -40.200938 
L 135.101391 -40.200938 
L 132.192445 -40.200938 
L 129.2835 -40.200938 
L 126.374555 -40.200938 
L 123.465609 -40.200938 
L 120.556664 -40.200938 
L 117.647718 -40.200938 
L 114.738773 -40.200938 
L 111.829827 -40.200938 
L 108.920882 -40.200938 
L 106.011936 -40.200938 
L 103.102991 -40.200938 
L 100.194045 -40.200938 
L 97.2851 -40.200938 
L 94.376155 -40.200938 
L 91.467209 -40.200938 
L 88.558264 -40.200938 
L 85.649318 -40.200938 
z
" style="stroke: #66bb6a; stroke-opacity: 0.25"/>
    </defs>
    <g clip-path="url(#p719ee023bd)">
     <use xlink:href="#m10990826f7" x="0" y="352.798125" style="fill: #66bb6a; fill-opacity: 0.25; stroke: #66bb6a; stroke-opacity: 0.25"/>
    </g>
   </g>
   <g id="matplotlib.axis_1">
    <g id="xtick_1">
     <g id="line2d_1">
      <path d="M 82.740373 312.597187 
L 82.740373 26.877187 
" clip-path="url(#p719ee023bd)" style="fill: none; stroke-dasharray: 2.96,1.28; stroke-dashoffset: 0; stroke: #b0b0b0; stroke-opacity: 0.3; stroke-width: 0.8"/>
     </g>
     <g id="line2d_2">
      <defs>
       <path id="mb214748d50" d="M 0 0 
L 0 3.5 
" style="stroke: #000000; stroke-width: 0.8"/>
      </defs>
      <g>
       <use xlink:href="#mb214748d50" x="82.740373" y="312.597187" style="stroke: #000000; stroke-width: 0.8"/>
      </g>
     </g>
     <g id="text_1">
      <!-- 0 -->
      <g transform="translate(79.559123 327.194844) scale(0.1 -0.1)">
       <defs>
        <path id="DejaVuSans-13" d="M 2034 4250 
Q 1547 4250 1301 3770 
Q 1056 3291 1056 2328 
Q 1056 1369 1301 889 
Q 1547 409 2034 409 
Q 2525 409 2770 889 
Q 3016 1369 3016 2328 
Q 3016 3291 2770 3770 
Q 2525 4250 2034 4250 
z
M 2034 4750 
Q 2819 4750 3233 4129 
Q 3647 3509 3647 2328 
Q 3647 1150 3233 529 
Q 2819 -91 2034 -91 
Q 1250 -91 836 529 
Q 422 1150 422 2328 
Q 422 3509 836 4129 
Q 1250 4750 2034 4750 
z
" transform="scale(0.015625)"/>
       </defs>
       <use xlink:href="#DejaVuSans-13"/>
      </g>
     </g>
    </g>
    <g id="xtick_2">
     <g id="line2d_3">
      <path d="M 199.098191 312.597187 
L 199.098191 26.877187 
" clip-path="url(#p719ee023bd)" style="fill: none; stroke-dasharray: 2.96,1.28; stroke-dashoffset: 0; stroke: #b0b0b0; stroke-opacity: 0.3; stroke-width: 0.8"/>
     </g>
     <g id="line2d_4">
      <g>
       <use xlink:href="#mb214748d50" x="199.098191" y="312.597187" style="stroke: #000000; stroke-width: 0.8"/>
      </g>
     </g>
     <g id="text_2">
      <!-- 20000 -->
      <g transform="translate(183.191941 327.194844) scale(0.1 -0.1)">
       <defs>
        <path id="DejaVuSans-15" d="M 1228 531 
L 3431 531 
L 3431 0 
L 469 0 
L 469 531 
Q 828 903 1448 1529 
Q 2069 2156 2228 2338 
Q 2531 2678 2651 2914 
Q 2772 3150 2772 3378 
Q 2772 3750 2511 3984 
Q 2250 4219 1831 4219 
Q 1534 4219 1204 4116 
Q 875 4013 500 3803 
L 500 4441 
Q 881 4594 1212 4672 
Q 1544 4750 1819 4750 
Q 2544 4750 2975 4387 
Q 3406 4025 3406 3419 
Q 3406 3131 3298 2873 
Q 3191 2616 2906 2266 
Q 2828 2175 2409 1742 
Q 1991 1309 1228 531 
z
" transform="scale(0.015625)"/>
       </defs>
       <use xlink:href="#DejaVuSans-15"/>
       <use xlink:href="#DejaVuSans-13" transform="translate(63.625 0)"/>
       <use xlink:href="#DejaVuSans-13" transform="translate(127.25 0)"/>
       <use xlink:href="#DejaVuSans-13" transform="translate(190.875 0)"/>
       <use xlink:href="#DejaVuSans-13" transform="translate(254.5 0)"/>
      </g>
     </g>
    </g>
    <g id="xtick_3">
     <g id="line2d_5">
      <path d="M 315.456009 312.597187 
L 315.456009 26.877187 
" clip-path="url(#p719ee023bd)" style="fill: none; stroke-dasharray: 2.96,1.28; stroke-dashoffset: 0; stroke: #b0b0b0; stroke-opacity: 0.3; stroke-width: 0.8"/>
     </g>
     <g id="line2d_6">
      <g>
       <use xlink:href="#mb214748d50" x="315.456009" y="312.597187" style="stroke: #000000; stroke-width: 0.8"/>
      </g>
     </g>
     <g id="text_3">
      <!-- 40000 -->
      <g transform="translate(299.549759 327.194844) scale(0.1 -0.1)">
       <defs>
        <path id="DejaVuSans-17" d="M 2419 4116 
L 825 1625 
L 2419 1625 
L 2419 4116 
z
M 2253 4666 
L 3047 4666 
L 3047 1625 
L 3713 1625 
L 3713 1100 
L 3047 1100 
L 3047 0 
L 2419 0 
L 2419 1100 
L 313 1100 
L 313 1709 
L 2253 4666 
z
" transform="scale(0.015625)"/>
       </defs>
       <use xlink:href="#DejaVuSans-17"/>
       <use xlink:href="#DejaVuSans-13" transform="translate(63.625 0)"/>
       <use xlink:href="#DejaVuSans-13" transform="translate(127.25 0)"/>
       <use xlink:href="#DejaVuSans-13" transform="translate(190.875 0)"/>
       <use xlink:href="#DejaVuSans-13" transform="translate(254.5 0)"/>
      </g>
     </g>
    </g>
    <g id="xtick_4">
     <g id="line2d_7">
      <path d="M 431.813827 312.597187 
L 431.813827 26.877187 
" clip-path="url(#p719ee023bd)" style="fill: none; stroke-dasharray: 2.96,1.28; stroke-dashoffset: 0; stroke: #b0b0b0; stroke-opacity: 0.3; stroke-width: 0.8"/>
     </g>
     <g id="line2d_8">
      <g>
       <use xlink:href="#mb214748d50" x="431.813827" y="312.597187" style="stroke: #000000; stroke-width: 0.8"/>
      </g>
     </g>
     <g id="text_4">
      <!-- 60000 -->
      <g transform="translate(415.907577 327.194844) scale(0.1 -0.1)">
       <defs>
        <path id="DejaVuSans-19" d="M 2113 2584 
Q 1688 2584 1439 2293 
Q 1191 2003 1191 1497 
Q 1191 994 1439 701 
Q 1688 409 2113 409 
Q 2538 409 2786 701 
Q 3034 994 3034 1497 
Q 3034 2003 2786 2293 
Q 2538 2584 2113 2584 
z
M 3366 4563 
L 3366 3988 
Q 3128 4100 2886 4159 
Q 2644 4219 2406 4219 
Q 1781 4219 1451 3797 
Q 1122 3375 1075 2522 
Q 1259 2794 1537 2939 
Q 1816 3084 2150 3084 
Q 2853 3084 3261 2657 
Q 3669 2231 3669 1497 
Q 3669 778 3244 343 
Q 2819 -91 2113 -91 
Q 1303 -91 875 529 
Q 447 1150 447 2328 
Q 447 3434 972 4092 
Q 1497 4750 2381 4750 
Q 2619 4750 2861 4703 
Q 3103 4656 3366 4563 
z
" transform="scale(0.015625)"/>
       </defs>
       <use xlink:href="#DejaVuSans-19"/>
       <use xlink:href="#DejaVuSans-13" transform="translate(63.625 0)"/>
       <use xlink:href="#DejaVuSans-13" transform="translate(127.25 0)"/>
       <use xlink:href="#DejaVuSans-13" transform="translate(190.875 0)"/>
       <use xlink:href="#DejaVuSans-13" transform="translate(254.5 0)"/>
      </g>
     </g>
    </g>
    <g id="xtick_5">
     <g id="line2d_9">
      <path d="M 548.171645 312.597187 
L 548.171645 26.877187 
" clip-path="url(#p719ee023bd)" style="fill: none; stroke-dasharray: 2.96,1.28; stroke-dashoffset: 0; stroke: #b0b0b0; stroke-opacity: 0.3; stroke-width: 0.8"/>
     </g>
     <g id="line2d_10">
      <g>
       <use xlink:href="#mb214748d50" x="548.171645" y="312.597187" style="stroke: #000000; stroke-width: 0.8"/>
      </g>
     </g>
     <g id="text_5">
      <!-- 80000 -->
      <g transform="translate(532.265395 327.194844) scale(0.1 -0.1)">
       <defs>
        <path id="DejaVuSans-1b" d="M 2034 2216 
Q 1584 2216 1326 1975 
Q 1069 1734 1069 1313 
Q 1069 891 1326 650 
Q 1584 409 2034 409 
Q 2484 409 2743 651 
Q 3003 894 3003 1313 
Q 3003 1734 2745 1975 
Q 2488 2216 2034 2216 
z
M 1403 2484 
Q 997 2584 770 2862 
Q 544 3141 544 3541 
Q 544 4100 942 4425 
Q 1341 4750 2034 4750 
Q 2731 4750 3128 4425 
Q 3525 4100 3525 3541 
Q 3525 3141 3298 2862 
Q 3072 2584 2669 2484 
Q 3125 2378 3379 2068 
Q 3634 1759 3634 1313 
Q 3634 634 3220 271 
Q 2806 -91 2034 -91 
Q 1263 -91 848 271 
Q 434 634 434 1313 
Q 434 1759 690 2068 
Q 947 2378 1403 2484 
z
M 1172 3481 
Q 1172 3119 1398 2916 
Q 1625 2713 2034 2713 
Q 2441 2713 2670 2916 
Q 2900 3119 2900 3481 
Q 2900 3844 2670 4047 
Q 2441 4250 2034 4250 
Q 1625 4250 1398 4047 
Q 1172 3844 1172 3481 
z
" transform="scale(0.015625)"/>
       </defs>
       <use xlink:href="#DejaVuSans-1b"/>
       <use xlink:href="#DejaVuSans-13" transform="translate(63.625 0)"/>
       <use xlink:href="#DejaVuSans-13" transform="translate(127.25 0)"/>
       <use xlink:href="#DejaVuSans-13" transform="translate(190.875 0)"/>
       <use xlink:href="#DejaVuSans-13" transform="translate(254.5 0)"/>
      </g>
     </g>
    </g>
    <g id="xtick_6">
     <g id="line2d_11">
      <path d="M 664.529464 312.597187 
L 664.529464 26.877187 
" clip-path="url(#p719ee023bd)" style="fill: none; stroke-dasharray: 2.96,1.28; stroke-dashoffset: 0; stroke: #b0b0b0; stroke-opacity: 0.3; stroke-width: 0.8"/>
     </g>
     <g id="line2d_12">
      <g>
       <use xlink:href="#mb214748d50" x="664.529464" y="312.597187" style="stroke: #000000; stroke-width: 0.8"/>
      </g>
     </g>
     <g id="text_6">
      <!-- 100000 -->
      <g transform="translate(645.441964 327.194844) scale(0.1 -0.1)">
       <defs>
        <path id="DejaVuSans-14" d="M 794 531 
L 1825 531 
L 1825 4091 
L 703 3866 
L 703 4441 
L 1819 4666 
L 2450 4666 
L 2450 531 
L 3481 531 
L 3481 0 
L 794 0 
L 794 531 
z
" transform="scale(0.015625)"/>
       </defs>
       <use xlink:href="#DejaVuSans-14"/>
       <use xlink:href="#DejaVuSans-13" transform="translate(63.625 0)"/>
       <use xlink:href="#DejaVuSans-13" transform="translate(127.25 0)"/>
       <use xlink:href="#DejaVuSans-13" transform="translate(190.875 0)"/>
       <use xlink:href="#DejaVuSans-13" transform="translate(254.5 0)"/>
       <use xlink:href="#DejaVuSans-13" transform="translate(318.125 0)"/>
      </g>
     </g>
    </g>
    <g id="xtick_7">
     <g id="line2d_13">
      <path d="M 780.887282 312.597187 
L 780.887282 26.877187 
" clip-path="url(#p719ee023bd)" style="fill: none; stroke-dasharray: 2.96,1.28; stroke-dashoffset: 0; stroke: #b0b0b0; stroke-opacity: 0.3; stroke-width: 0.8"/>
     </g>
     <g id="line2d_14">
      <g>
       <use xlink:href="#mb214748d50" x="780.887282" y="312.597187" style="stroke: #000000; stroke-width: 0.8"/>
      </g>
     </g>
     <g id="text_7">
      <!-- 120000 -->
      <g transform="translate(761.799782 327.194844) scale(0.1 -0.1)">
       <use xlink:href="#DejaVuSans-14"/>
       <use xlink:href="#DejaVuSans-15" transform="translate(63.625 0)"/>
       <use xlink:href="#DejaVuSans-13" transform="translate(127.25 0)"/>
       <use xlink:href="#DejaVuSans-13" transform="translate(190.875 0)"/>
       <use xlink:href="#DejaVuSans-13" transform="translate(254.5 0)"/>
       <use xlink:href="#DejaVuSans-13" transform="translate(318.125 0)"/>
      </g>
     </g>
    </g>
    <g id="text_8">
     <!-- Genome Position (bp) -->
     <g transform="translate(384.442188 342.715312) scale(0.12 -0.12)">
      <defs>
       <path id="DejaVuSans-2a" d="M 3809 666 
L 3809 1919 
L 2778 1919 
L 2778 2438 
L 4434 2438 
L 4434 434 
Q 4069 175 3628 42 
Q 3188 -91 2688 -91 
Q 1594 -91 976 548 
Q 359 1188 359 2328 
Q 359 3472 976 4111 
Q 1594 4750 2688 4750 
Q 3144 4750 3555 4637 
Q 3966 4525 4313 4306 
L 4313 3634 
Q 3963 3931 3569 4081 
Q 3175 4231 2741 4231 
Q 1884 4231 1454 3753 
Q 1025 3275 1025 2328 
Q 1025 1384 1454 906 
Q 1884 428 2741 428 
Q 3075 428 3337 486 
Q 3600 544 3809 666 
z
" transform="scale(0.015625)"/>
       <path id="DejaVuSans-48" d="M 3597 1894 
L 3597 1613 
L 953 1613 
Q 991 1019 1311 708 
Q 1631 397 2203 397 
Q 2534 397 2845 478 
Q 3156 559 3463 722 
L 3463 178 
Q 3153 47 2828 -22 
Q 2503 -91 2169 -91 
Q 1331 -91 842 396 
Q 353 884 353 1716 
Q 353 2575 817 3079 
Q 1281 3584 2069 3584 
Q 2775 3584 3186 3129 
Q 3597 2675 3597 1894 
z
M 3022 2063 
Q 3016 2534 2758 2815 
Q 2500 3097 2075 3097 
Q 1594 3097 1305 2825 
Q 1016 2553 972 2059 
L 3022 2063 
z
" transform="scale(0.015625)"/>
       <path id="DejaVuSans-51" d="M 3513 2113 
L 3513 0 
L 2938 0 
L 2938 2094 
Q 2938 2591 2744 2837 
Q 2550 3084 2163 3084 
Q 1697 3084 1428 2787 
Q 1159 2491 1159 1978 
L 1159 0 
L 581 0 
L 581 3500 
L 1159 3500 
L 1159 2956 
Q 1366 3272 1645 3428 
Q 1925 3584 2291 3584 
Q 2894 3584 3203 3211 
Q 3513 2838 3513 2113 
z
" transform="scale(0.015625)"/>
       <path id="DejaVuSans-52" d="M 1959 3097 
Q 1497 3097 1228 2736 
Q 959 2375 959 1747 
Q 959 1119 1226 758 
Q 1494 397 1959 397 
Q 2419 397 2687 759 
Q 2956 1122 2956 1747 
Q 2956 2369 2687 2733 
Q 2419 3097 1959 3097 
z
M 1959 3584 
Q 2709 3584 3137 3096 
Q 3566 2609 3566 1747 
Q 3566 888 3137 398 
Q 2709 -91 1959 -91 
Q 1206 -91 779 398 
Q 353 888 353 1747 
Q 353 2609 779 3096 
Q 1206 3584 1959 3584 
z
" transform="scale(0.015625)"/>
       <path id="DejaVuSans-50" d="M 3328 2828 
Q 3544 3216 3844 3400 
Q 4144 3584 4550 3584 
Q 5097 3584 5394 3201 
Q 5691 2819 5691 2113 
L 5691 0 
L 5113 0 
L 5113 2094 
Q 5113 2597 4934 2840 
Q 4756 3084 4391 3084 
Q 3944 3084 3684 2787 
Q 3425 2491 3425 1978 
L 3425 0 
L 2847 0 
L 2847 2094 
Q 2847 2600 2669 2842 
Q 2491 3084 2119 3084 
Q 1678 3084 1418 2786 
Q 1159 2488 1159 1978 
L 1159 0 
L 581 0 
L 581 3500 
L 1159 3500 
L 1159 2956 
Q 1356 3278 1631 3431 
Q 1906 3584 2284 3584 
Q 2666 3584 2933 3390 
Q 3200 3197 3328 2828 
z
" transform="scale(0.015625)"/>
       <path id="DejaVuSans-3" transform="scale(0.015625)"/>
       <path id="DejaVuSans-33" d="M 1259 4147 
L 1259 2394 
L 2053 2394 
Q 2494 2394 2734 2622 
Q 2975 2850 2975 3272 
Q 2975 3691 2734 3919 
Q 2494 4147 2053 4147 
L 1259 4147 
z
M 628 4666 
L 2053 4666 
Q 2838 4666 3239 4311 
Q 3641 3956 3641 3272 
Q 3641 2581 3239 2228 
Q 2838 1875 2053 1875 
L 1259 1875 
L 1259 0 
L 628 0 
L 628 4666 
z
" transform="scale(0.015625)"/>
       <path id="DejaVuSans-56" d="M 2834 3397 
L 2834 2853 
Q 2591 2978 2328 3040 
Q 2066 3103 1784 3103 
Q 1356 3103 1142 2972 
Q 928 2841 928 2578 
Q 928 2378 1081 2264 
Q 1234 2150 1697 2047 
L 1894 2003 
Q 2506 1872 2764 1633 
Q 3022 1394 3022 966 
Q 3022 478 2636 193 
Q 2250 -91 1575 -91 
Q 1294 -91 989 -36 
Q 684 19 347 128 
L 347 722 
Q 666 556 975 473 
Q 1284 391 1588 391 
Q 1994 391 2212 530 
Q 2431 669 2431 922 
Q 2431 1156 2273 1281 
Q 2116 1406 1581 1522 
L 1381 1569 
Q 847 1681 609 1914 
Q 372 2147 372 2553 
Q 372 3047 722 3315 
Q 1072 3584 1716 3584 
Q 2034 3584 2315 3537 
Q 2597 3491 2834 3397 
z
" transform="scale(0.015625)"/>
       <path id="DejaVuSans-4c" d="M 603 3500 
L 1178 3500 
L 1178 0 
L 603 0 
L 603 3500 
z
M 603 4863 
L 1178 4863 
L 1178 4134 
L 603 4134 
L 603 4863 
z
" transform="scale(0.015625)"/>
       <path id="DejaVuSans-57" d="M 1172 4494 
L 1172 3500 
L 2356 3500 
L 2356 3053 
L 1172 3053 
L 1172 1153 
Q 1172 725 1289 603 
Q 1406 481 1766 481 
L 2356 481 
L 2356 0 
L 1766 0 
Q 1100 0 847 248 
Q 594 497 594 1153 
L 594 3053 
L 172 3053 
L 172 3500 
L 594 3500 
L 594 4494 
L 1172 4494 
z
" transform="scale(0.015625)"/>
       <path id="DejaVuSans-b" d="M 1984 4856 
Q 1566 4138 1362 3434 
Q 1159 2731 1159 2009 
Q 1159 1288 1364 580 
Q 1569 -128 1984 -844 
L 1484 -844 
Q 1016 -109 783 600 
Q 550 1309 550 2009 
Q 550 2706 781 3412 
Q 1013 4119 1484 4856 
L 1984 4856 
z
" transform="scale(0.015625)"/>
       <path id="DejaVuSans-45" d="M 3116 1747 
Q 3116 2381 2855 2742 
Q 2594 3103 2138 3103 
Q 1681 3103 1420 2742 
Q 1159 2381 1159 1747 
Q 1159 1113 1420 752 
Q 1681 391 2138 391 
Q 2594 391 2855 752 
Q 3116 1113 3116 1747 
z
M 1159 2969 
Q 1341 3281 1617 3432 
Q 1894 3584 2278 3584 
Q 2916 3584 3314 3078 
Q 3713 2572 3713 1747 
Q 3713 922 3314 415 
Q 2916 -91 2278 -91 
Q 1894 -91 1617 61 
Q 1341 213 1159 525 
L 1159 0 
L 581 0 
L 581 4863 
L 1159 4863 
L 1159 2969 
z
" transform="scale(0.015625)"/>
       <path id="DejaVuSans-53" d="M 1159 525 
L 1159 -1331 
L 581 -1331 
L 581 3500 
L 1159 3500 
L 1159 2969 
Q 1341 3281 1617 3432 
Q 1894 3584 2278 3584 
Q 2916 3584 3314 3078 
Q 3713 2572 3713 1747 
Q 3713 922 3314 415 
Q 2916 -91 2278 -91 
Q 1894 -91 1617 61 
Q 1341 213 1159 525 
z
M 3116 1747 
Q 3116 2381 2855 2742 
Q 2594 3103 2138 3103 
Q 1681 3103 1420 2742 
Q 1159 2381 1159 1747 
Q 1159 1113 1420 752 
Q 1681 391 2138 391 
Q 2594 391 2855 752 
Q 3116 1113 3116 1747 
z
" transform="scale(0.015625)"/>
       <path id="DejaVuSans-c" d="M 513 4856 
L 1013 4856 
Q 1481 4119 1714 3412 
Q 1947 2706 1947 2009 
Q 1947 1309 1714 600 
Q 1481 -109 1013 -844 
L 513 -844 
Q 928 -128 1133 580 
Q 1338 1288 1338 2009 
Q 1338 2731 1133 3434 
Q 928 4138 513 4856 
z
" transform="scale(0.015625)"/>
      </defs>
      <use xlink:href="#DejaVuSans-2a"/>
      <use xlink:href="#DejaVuSans-48" transform="translate(77.484375 0)"/>
      <use xlink:href="#DejaVuSans-51" transform="translate(139.015625 0)"/>
      <use xlink:href="#DejaVuSans-52" transform="translate(202.390625 0)"/>
      <use xlink:href="#DejaVuSans-50" transform="translate(263.578125 0)"/>
      <use xlink:href="#DejaVuSans-48" transform="translate(360.984375 0)"/>
      <use xlink:href="#DejaVuSans-3" transform="translate(422.515625 0)"/>
      <use xlink:href="#DejaVuSans-33" transform="translate(454.296875 0)"/>
      <use xlink:href="#DejaVuSans-52" transform="translate(511.03125 0)"/>
      <use xlink:href="#DejaVuSans-56" transform="translate(572.21875 0)"/>
      <use xlink:href="#DejaVuSans-4c" transform="translate(624.3125 0)"/>
      <use xlink:href="#DejaVuSans-57" transform="translate(652.09375 0)"/>
      <use xlink:href="#DejaVuSans-4c" transform="translate(691.296875 0)"/>
      <use xlink:href="#DejaVuSans-52" transform="translate(719.078125 0)"/>
      <use xlink:href="#DejaVuSans-51" transform="translate(780.265625 0)"/>
      <use xlink:href="#DejaVuSans-3" transform="translate(843.640625 0)"/>
      <use xlink:href="#DejaVuSans-b" transform="translate(875.421875 0)"/>
      <use xlink:href="#DejaVuSans-45" transform="translate(914.4375 0)"/>
      <use xlink:href="#DejaVuSans-53" transform="translate(977.921875 0)"/>
      <use xlink:href="#DejaVuSans-c" transform="translate(1041.40625 0)"/>
     </g>
    </g>
   </g>
   <g id="matplotlib.axis_2">
    <g id="ytick_1">
     <g id="line2d_15">
      <path d="M 49.2875 312.597187 
L 849.2475 312.597187 
" clip-path="url(#p719ee023bd)" style="fill: none; stroke-dasharray: 2.96,1.28; stroke-dashoffset: 0; stroke: #b0b0b0; stroke-opacity: 0.3; stroke-width: 0.8"/>
     </g>
     <g id="line2d_16">
      <defs>
       <path id="m41130856c8" d="M 0 0 
L -3.5 0 
" style="stroke: #000000; stroke-width: 0.8"/>
      </defs>
      <g>
       <use xlink:href="#m41130856c8" x="49.2875" y="312.597187" style="stroke: #000000; stroke-width: 0.8"/>
      </g>
     </g>
     <g id="text_9">
      <!-- 0 -->
      <g transform="translate(35.925 316.396016) scale(0.1 -0.1)">
       <use xlink:href="#DejaVuSans-13"/>
      </g>
     </g>
    </g>
    <g id="ytick_2">
     <g id="line2d_17">
      <path d="M 49.2875 255.453187 
L 849.2475 255.453187 
" clip-path="url(#p719ee023bd)" style="fill: none; stroke-dasharray: 2.96,1.28; stroke-dashoffset: 0; stroke: #b0b0b0; stroke-opacity: 0.3; stroke-width: 0.8"/>
     </g>
     <g id="line2d_18">
      <g>
       <use xlink:href="#m41130856c8" x="49.2875" y="255.453187" style="stroke: #000000; stroke-width: 0.8"/>
      </g>
     </g>
     <g id="text_10">
      <!-- 20 -->
      <g transform="translate(29.5625 259.252016) scale(0.1 -0.1)">
       <use xlink:href="#DejaVuSans-15"/>
       <use xlink:href="#DejaVuSans-13" transform="translate(63.625 0)"/>
      </g>
     </g>
    </g>
    <g id="ytick_3">
     <g id="line2d_19">
      <path d="M 49.2875 198.309187 
L 849.2475 198.309187 
" clip-path="url(#p719ee023bd)" style="fill: none; stroke-dasharray: 2.96,1.28; stroke-dashoffset: 0; stroke: #b0b0b0; stroke-opacity: 0.3; stroke-width: 0.8"/>
     </g>
     <g id="line2d_20">
      <g>
       <use xlink:href="#m41130856c8" x="49.2875" y="198.309187" style="stroke: #000000; stroke-width: 0.8"/>
      </g>
     </g>
     <g id="text_11">
      <!-- 40 -->
      <g transform="translate(29.5625 202.108016) scale(0.1 -0.1)">
       <use xlink:href="#DejaVuSans-17"/>
       <use xlink:href="#DejaVuSans-13" transform="translate(63.625 0)"/>
      </g>
     </g>
    </g>
    <g id="ytick_4">
     <g id="line2d_21">
      <path d="M 49.2875 141.165187 
L 849.2475 141.165187 
" clip-path="url(#p719ee023bd)" style="fill: none; stroke-dasharray: 2.96,1.28; stroke-dashoffset: 0; stroke: #b0b0b0; stroke-opacity: 0.3; stroke-width: 0.8"/>
     </g>
     <g id="line2d_22">
      <g>
       <use xlink:href="#m41130856c8" x="49.2875" y="141.165187" style="stroke: #000000; stroke-width: 0.8"/>
      </g>
     </g>
     <g id="text_12">
      <!-- 60 -->
      <g transform="translate(29.5625 144.964016) scale(0.1 -0.1)">
       <use xlink:href="#DejaVuSans-19"/>
       <use xlink:href="#DejaVuSans-13" transform="translate(63.625 0)"/>
      </g>
     </g>
    </g>
    <g id="ytick_5">
     <g id="line2d_23">
      <path d="M 49.2875 84.021187 
L 849.2475 84.021187 
" clip-path="url(#p719ee023bd)" style="fill: none; stroke-dasharray: 2.96,1.28; stroke-dashoffset: 0; stroke: #b0b0b0; stroke-opacity: 0.3; stroke-width: 0.8"/>
     </g>
     <g id="line2d_24">
      <g>
       <use xlink:href="#m41130856c8" x="49.2875" y="84.021187" style="stroke: #000000; stroke-width: 0.8"/>
      </g>
     </g>
     <g id="text_13">
      <!-- 80 -->
      <g transform="translate(29.5625 87.820016) scale(0.1 -0.1)">
       <use xlink:href="#DejaVuSans-1b"/>
       <use xlink:href="#DejaVuSans-13" transform="translate(63.625 0)"/>
      </g>
     </g>
    </g>
    <g id="ytick_6">
     <g id="line2d_25">
      <path d="M 49.2875 26.877187 
L 849.2475 26.877187 
" clip-path="url(#p719ee023bd)" style="fill: none; stroke-dasharray: 2.96,1.28; stroke-dashoffset: 0; stroke: #b0b0b0; stroke-opacity: 0.3; stroke-width: 0.8"/>
     </g>
     <g id="line2d_26">
      <g>
       <use xlink:href="#m41130856c8" x="49.2875" y="26.877187" style="stroke: #000000; stroke-width: 0.8"/>
      </g>
     </g>
     <g id="text_14">
      <!-- 100 -->
      <g transform="translate(23.2 30.676016) scale(0.1 -0.1)">
       <use xlink:href="#DejaVuSans-14"/>
       <use xlink:href="#DejaVuSans-13" transform="translate(63.625 0)"/>
       <use xlink:href="#DejaVuSans-13" transform="translate(127.25 0)"/>
      </g>
     </g>
    </g>
    <g id="text_15">
     <!-- GC Content (%) -->
     <g transform="translate(16.317188 216.634687) rotate(-90) scale(0.12 -0.12)">
      <defs>
       <path id="DejaVuSans-26" d="M 4122 4306 
L 4122 3641 
Q 3803 3938 3442 4084 
Q 3081 4231 2675 4231 
Q 1875 4231 1450 3742 
Q 1025 3253 1025 2328 
Q 1025 1406 1450 917 
Q 1875 428 2675 428 
Q 3081 428 3442 575 
Q 3803 722 4122 1019 
L 4122 359 
Q 3791 134 3420 21 
Q 3050 -91 2638 -91 
Q 1578 -91 968 557 
Q 359 1206 359 2328 
Q 359 3453 968 4101 
Q 1578 4750 2638 4750 
Q 3056 4750 3426 4639 
Q 3797 4528 4122 4306 
z
" transform="scale(0.015625)"/>
       <path id="DejaVuSans-8" d="M 4653 2053 
Q 4381 2053 4226 1822 
Q 4072 1591 4072 1178 
Q 4072 772 4226 539 
Q 4381 306 4653 306 
Q 4919 306 5073 539 
Q 5228 772 5228 1178 
Q 5228 1588 5073 1820 
Q 4919 2053 4653 2053 
z
M 4653 2450 
Q 5147 2450 5437 2106 
Q 5728 1763 5728 1178 
Q 5728 594 5436 251 
Q 5144 -91 4653 -91 
Q 4153 -91 3862 251 
Q 3572 594 3572 1178 
Q 3572 1766 3864 2108 
Q 4156 2450 4653 2450 
z
M 1428 4353 
Q 1159 4353 1004 4120 
Q 850 3888 850 3481 
Q 850 3069 1003 2837 
Q 1156 2606 1428 2606 
Q 1700 2606 1854 2837 
Q 2009 3069 2009 3481 
Q 2009 3884 1853 4118 
Q 1697 4353 1428 4353 
z
M 4250 4750 
L 4750 4750 
L 1831 -91 
L 1331 -91 
L 4250 4750 
z
M 1428 4750 
Q 1922 4750 2215 4408 
Q 2509 4066 2509 3481 
Q 2509 2891 2217 2550 
Q 1925 2209 1428 2209 
Q 931 2209 642 2551 
Q 353 2894 353 3481 
Q 353 4063 643 4406 
Q 934 4750 1428 4750 
z
" transform="scale(0.015625)"/>
      </defs>
      <use xlink:href="#DejaVuSans-2a"/>
      <use xlink:href="#DejaVuSans-26" transform="translate(77.484375 0)"/>
      <use xlink:href="#DejaVuSans-3" transform="translate(147.3125 0)"/>
      <use xlink:href="#DejaVuSans-26" transform="translate(179.09375 0)"/>
      <use xlink:href="#DejaVuSans-52" transform="translate(248.921875 0)"/>
      <use xlink:href="#DejaVuSans-51" transform="translate(310.109375 0)"/>
      <use xlink:href="#DejaVuSans-57" transform="translate(373.484375 0)"/>
      <use xlink:href="#DejaVuSans-48" transform="translate(412.6875 0)"/>
      <use xlink:href="#DejaVuSans-51" transform="translate(474.21875 0)"/>
      <use xlink:href="#DejaVuSans-57" transform="translate(537.59375 0)"/>
      <use xlink:href="#DejaVuSans-3" transform="translate(576.796875 0)"/>
      <use xlink:href="#DejaVuSans-b" transform="translate(608.578125 0)"/>
      <use xlink:href="#DejaVuSans-8" transform="translate(647.59375 0)"/>
      <use xlink:href="#DejaVuSans-c" transform="translate(742.609375 0)"/>
     </g>
    </g>
   </g>
   <g id="line2d_27">
    <path d="M 85.649318 151.451108 
L 88.558264 154.022587 
L 91.467209 175.165867 
L 94.376155 197.737747 
L 97.2851 188.594707 
L 100.194045 164.308507 
L 103.102991 170.880067 
L 108.920882 221.166787 
L 111.829827 232.024147 
L 114.738773 208.880827 
L 117.647718 183.737467 
L 120.556664 187.166107 
L 123.465609 186.594667 
L 126.374555 185.737507 
L 129.2835 197.452027 
L 132.192445 194.023387 
L 135.101391 190.023307 
L 138.010336 187.737547 
L 140.919282 184.023187 
L 143.828227 157.165507 
L 146.737173 150.879667 
L 149.646118 200.309227 
L 152.555064 218.309587 
L 155.464009 190.880467 
L 158.372955 192.309067 
L 161.2819 210.880867 
L 164.190845 195.166268 
L 167.099791 177.451627 
L 170.008736 176.594467 
L 172.917682 190.309027 
L 175.826627 186.308947 
L 178.735573 184.594627 
L 181.644518 194.309107 
L 184.553464 179.451667 
L 187.462409 182.023147 
L 190.371355 194.594827 
L 193.2803 189.166147 
L 196.189245 185.166067 
L 199.098191 175.737307 
L 202.007136 174.880147 
L 204.916082 183.451747 
L 207.825027 184.880347 
L 210.733973 178.308787 
L 213.642918 170.880067 
L 216.551864 168.880027 
L 219.460809 170.308627 
L 222.369755 195.451987 
L 225.2787 198.023467 
L 228.187645 172.022947 
L 231.096591 170.594347 
L 234.005536 172.880107 
L 236.914482 173.165827 
L 239.823427 190.880467 
L 242.732373 196.594867 
L 245.641318 178.023067 
L 248.550264 169.165747 
L 251.459209 170.594347 
L 254.368155 168.022867 
L 257.2771 172.594387 
L 260.186045 172.880107 
L 263.094991 180.308827 
L 266.003936 176.880187 
L 268.912882 164.594227 
L 271.821827 177.165907 
L 274.730773 187.451827 
L 277.639718 196.309147 
L 280.548664 185.737507 
L 283.457609 159.736987 
L 286.366555 144.879548 
L 289.2755 163.737067 
L 292.184445 176.023027 
L 295.093391 167.737147 
L 298.002336 173.737267 
L 300.911282 176.594467 
L 303.820227 173.165827 
L 306.729173 180.308827 
L 309.638118 205.166467 
L 312.547064 202.880707 
L 315.456009 193.166227 
L 318.364955 186.023227 
L 321.2739 176.023027 
L 324.182845 180.880267 
L 327.091791 172.594387 
L 330.000736 170.022907 
L 332.909682 144.593827 
L 335.818627 125.736307 
L 338.727573 152.593987 
L 341.636518 166.308547 
L 344.545464 156.879787 
L 347.454409 159.451267 
L 350.363355 201.166387 
L 353.2723 203.737867 
L 356.181245 178.594507 
L 359.090191 186.308947 
L 361.999136 208.595107 
L 364.908082 207.166507 
L 367.817027 169.165747 
L 370.725973 160.308427 
L 373.634918 195.166268 
L 376.543864 211.738027 
L 379.452809 193.166227 
L 382.361755 181.737427 
L 385.2707 191.737627 
L 388.179645 186.023227 
L 393.997536 179.737387 
L 396.906482 193.737667 
L 399.815427 209.737987 
L 402.724373 198.880627 
L 405.633318 206.309347 
L 408.542264 192.880507 
L 411.451209 178.880227 
L 414.360155 177.737347 
L 417.2691 185.166067 
L 420.178045 197.737747 
L 423.086991 178.308787 
L 425.995936 170.022907 
L 428.904882 181.165987 
L 431.813827 182.308867 
L 434.722773 190.594747 
L 437.631718 188.308987 
L 440.540664 177.165907 
L 443.449609 179.737387 
L 446.358555 187.737547 
L 449.2675 191.737627 
L 452.176445 209.452267 
L 455.085391 208.309387 
L 457.994336 194.309107 
L 460.903282 205.166467 
L 463.812227 217.452427 
L 466.721173 208.309387 
L 469.630118 190.023307 
L 472.539064 181.737427 
L 475.448009 171.737227 
L 481.2659 170.022907 
L 484.174845 174.022987 
L 487.083791 198.023467 
L 489.992736 207.737947 
L 492.901682 193.451947 
L 495.810627 185.451787 
L 498.719573 186.594667 
L 501.628518 190.880467 
L 504.537464 198.880627 
L 507.446409 208.595107 
L 510.355355 204.023587 
L 513.2643 187.166107 
L 516.173245 183.166027 
L 519.082191 200.309227 
L 521.991136 204.309307 
L 524.900082 200.023507 
L 527.809027 205.166467 
L 530.717973 201.452107 
L 533.626918 203.737867 
L 536.535864 203.737867 
L 539.444809 199.166347 
L 542.353755 198.880627 
L 545.2627 190.023307 
L 548.171645 185.166067 
L 551.080591 196.309147 
L 553.989536 195.737707 
L 556.898482 198.594907 
L 559.807427 199.737787 
L 562.716373 183.166027 
L 565.625318 188.594707 
L 568.534264 210.023707 
L 571.443209 218.023867 
L 574.352155 206.309347 
L 577.2611 197.166307 
L 580.170045 191.166187 
L 583.078991 177.737347 
L 585.987936 182.594587 
L 588.896882 201.452107 
L 591.805827 206.880787 
L 594.714773 201.166387 
L 597.623718 193.166227 
L 600.532664 204.023587 
L 603.441609 190.309027 
L 606.350555 183.166027 
L 609.2595 198.880627 
L 612.168445 188.308987 
L 615.077391 194.023387 
L 617.986336 186.594667 
L 620.895282 175.451587 
L 623.804227 196.880587 
L 626.713173 217.452427 
L 629.622118 207.452227 
L 632.531064 188.880427 
L 635.440009 192.023347 
L 638.348955 187.737547 
L 641.2579 187.166107 
L 644.166845 209.737987 
L 647.075791 205.166467 
L 649.984736 176.308747 
L 652.893682 169.737187 
L 655.802627 194.309107 
L 658.711573 203.166427 
L 661.620518 203.737867 
L 664.529464 198.023467 
L 667.438409 191.737627 
L 670.347355 198.023467 
L 673.2563 202.309267 
L 676.165245 198.594907 
L 679.074191 183.737467 
L 681.983136 179.165947 
L 684.892082 175.737307 
L 687.801027 189.451867 
L 690.709973 189.737587 
L 693.618918 177.737347 
L 696.527864 195.451987 
L 699.436809 205.452187 
L 702.345755 201.166387 
L 705.2547 190.880467 
L 708.163645 184.308907 
L 711.072591 191.737627 
L 713.981536 196.309147 
L 716.890482 190.594747 
L 719.799427 175.737307 
L 722.708373 170.022907 
L 728.526264 187.737547 
L 731.435209 202.880707 
L 734.344155 194.880547 
L 737.2531 168.308587 
L 740.162045 174.022987 
L 743.070991 177.737347 
L 745.979936 180.880267 
L 748.888882 182.023147 
L 751.797827 171.451507 
L 754.706773 174.594427 
L 757.615718 184.308907 
L 763.433609 168.880027 
L 766.342555 182.023147 
L 769.2515 187.737547 
L 772.160445 183.451747 
L 775.069391 185.737507 
L 777.978336 181.737427 
L 780.887282 182.880307 
L 783.796227 196.023427 
L 786.705173 189.166147 
L 789.614118 172.022947 
L 792.523064 160.879867 
L 795.432009 173.165827 
L 798.340955 192.023347 
L 801.2499 181.737427 
L 804.158845 172.308667 
L 807.067791 175.165867 
L 809.976736 172.308667 
L 812.885682 191.737627 
L 812.885682 191.737627 
" clip-path="url(#p719ee023bd)" style="fill: none; stroke: #2e7d32; stroke-width: 2; stroke-linecap: square"/>
   </g>
   <g id="patch_3">
    <path d="M 49.2875 312.597187 
L 49.2875 26.877187 
" style="fill: none; stroke: #000000; stroke-width: 0.8; stroke-linejoin: miter; stroke-linecap: square"/>
   </g>
   <g id="patch_4">
    <path d="M 849.2475 312.597187 
L 849.2475 26.877187 
" style="fill: none; stroke: #000000; stroke-width: 0.8; stroke-linejoin: miter; stroke-linecap: square"/>
   </g>
   <g id="patch_5">
    <path d="M 49.2875 312.597187 
L 849.2475 312.597187 
" style="fill: none; stroke: #000000; stroke-width: 0.8; stroke-linejoin: miter; stroke-linecap: square"/>
   </g>
   <g id="patch_6">
    <path d="M 49.2875 26.877187 
L 849.2475 26.877187 
" style="fill: none; stroke: #000000; stroke-width: 0.8; stroke-linejoin: miter; stroke-linecap: square"/>
   </g>
   <g id="text_16">
    <!-- Sliding Window GC Content -->
    <g transform="translate(310.178125 20.877187) scale(0.18 -0.18)">
     <defs>
      <path id="DejaVuSans-Bold-36" d="M 3834 4519 
L 3834 3531 
Q 3450 3703 3084 3790 
Q 2719 3878 2394 3878 
Q 1963 3878 1756 3759 
Q 1550 3641 1550 3391 
Q 1550 3203 1689 3098 
Q 1828 2994 2194 2919 
L 2706 2816 
Q 3484 2659 3812 2340 
Q 4141 2022 4141 1434 
Q 4141 663 3683 286 
Q 3225 -91 2284 -91 
Q 1841 -91 1394 -6 
Q 947 78 500 244 
L 500 1259 
Q 947 1022 1364 901 
Q 1781 781 2169 781 
Q 2563 781 2772 912 
Q 2981 1044 2981 1288 
Q 2981 1506 2839 1625 
Q 2697 1744 2272 1838 
L 1806 1941 
Q 1106 2091 782 2419 
Q 459 2747 459 3303 
Q 459 4000 909 4375 
Q 1359 4750 2203 4750 
Q 2588 4750 2994 4692 
Q 3400 4634 3834 4519 
z
" transform="scale(0.015625)"/>
      <path id="DejaVuSans-Bold-4f" d="M 538 4863 
L 1656 4863 
L 1656 0 
L 538 0 
L 538 4863 
z
" transform="scale(0.015625)"/>
      <path id="DejaVuSans-Bold-4c" d="M 538 3500 
L 1656 3500 
L 1656 0 
L 538 0 
L 538 3500 
z
M 538 4863 
L 1656 4863 
L 1656 3950 
L 538 3950 
L 538 4863 
z
" transform="scale(0.015625)"/>
      <path id="DejaVuSans-Bold-47" d="M 2919 2988 
L 2919 4863 
L 4044 4863 
L 4044 0 
L 2919 0 
L 2919 506 
Q 2688 197 2409 53 
Q 2131 -91 1766 -91 
Q 1119 -91 703 423 
Q 288 938 288 1747 
Q 288 2556 703 3070 
Q 1119 3584 1766 3584 
Q 2128 3584 2408 3439 
Q 2688 3294 2919 2988 
z
M 2181 722 
Q 2541 722 2730 984 
Q 2919 1247 2919 1747 
Q 2919 2247 2730 2509 
Q 2541 2772 2181 2772 
Q 1825 2772 1636 2509 
Q 1447 2247 1447 1747 
Q 1447 1247 1636 984 
Q 1825 722 2181 722 
z
" transform="scale(0.015625)"/>
      <path id="DejaVuSans-Bold-51" d="M 4056 2131 
L 4056 0 
L 2931 0 
L 2931 347 
L 2931 1631 
Q 2931 2084 2911 2256 
Q 2891 2428 2841 2509 
Q 2775 2619 2662 2680 
Q 2550 2741 2406 2741 
Q 2056 2741 1856 2470 
Q 1656 2200 1656 1722 
L 1656 0 
L 538 0 
L 538 3500 
L 1656 3500 
L 1656 2988 
Q 1909 3294 2193 3439 
Q 2478 3584 2822 3584 
Q 3428 3584 3742 3212 
Q 4056 2841 4056 2131 
z
" transform="scale(0.015625)"/>
      <path id="DejaVuSans-Bold-4a" d="M 2919 594 
Q 2688 288 2409 144 
Q 2131 0 1766 0 
Q 1125 0 706 504 
Q 288 1009 288 1791 
Q 288 2575 706 3076 
Q 1125 3578 1766 3578 
Q 2131 3578 2409 3434 
Q 2688 3291 2919 2981 
L 2919 3500 
L 4044 3500 
L 4044 353 
Q 4044 -491 3511 -936 
Q 2978 -1381 1966 -1381 
Q 1638 -1381 1331 -1331 
Q 1025 -1281 716 -1178 
L 716 -306 
Q 1009 -475 1290 -558 
Q 1572 -641 1856 -641 
Q 2406 -641 2662 -400 
Q 2919 -159 2919 353 
L 2919 594 
z
M 2181 2772 
Q 1834 2772 1640 2515 
Q 1447 2259 1447 1791 
Q 1447 1309 1634 1061 
Q 1822 813 2181 813 
Q 2531 813 2725 1069 
Q 2919 1325 2919 1791 
Q 2919 2259 2725 2515 
Q 2531 2772 2181 2772 
z
" transform="scale(0.015625)"/>
      <path id="DejaVuSans-Bold-3" transform="scale(0.015625)"/>
      <path id="DejaVuSans-Bold-3a" d="M 191 4666 
L 1344 4666 
L 2150 1275 
L 2950 4666 
L 4109 4666 
L 4909 1275 
L 5716 4666 
L 6859 4666 
L 5759 0 
L 4372 0 
L 3525 3547 
L 2688 0 
L 1300 0 
L 191 4666 
z
" transform="scale(0.015625)"/>
      <path id="DejaVuSans-Bold-52" d="M 2203 2784 
Q 1831 2784 1636 2517 
Q 1441 2250 1441 1747 
Q 1441 1244 1636 976 
Q 1831 709 2203 709 
Q 2569 709 2762 976 
Q 2956 1244 2956 1747 
Q 2956 2250 2762 2517 
Q 2569 2784 2203 2784 
z
M 2203 3584 
Q 3106 3584 3614 3096 
Q 4122 2609 4122 1747 
Q 4122 884 3614 396 
Q 3106 -91 2203 -91 
Q 1297 -91 786 396 
Q 275 884 275 1747 
Q 275 2609 786 3096 
Q 1297 3584 2203 3584 
z
" transform="scale(0.015625)"/>
      <path id="DejaVuSans-Bold-5a" d="M 225 3500 
L 1313 3500 
L 1900 1088 
L 2491 3500 
L 3425 3500 
L 4013 1113 
L 4603 3500 
L 5691 3500 
L 4769 0 
L 3547 0 
L 2956 2406 
L 2369 0 
L 1147 0 
L 225 3500 
z
" transform="scale(0.015625)"/>
      <path id="DejaVuSans-Bold-2a" d="M 4781 347 
Q 4331 128 3847 18 
Q 3363 -91 2847 -91 
Q 1681 -91 1000 561 
Q 319 1213 319 2328 
Q 319 3456 1012 4103 
Q 1706 4750 2913 4750 
Q 3378 4750 3804 4662 
Q 4231 4575 4609 4403 
L 4609 3438 
Q 4219 3659 3833 3768 
Q 3447 3878 3059 3878 
Q 2341 3878 1952 3476 
Q 1563 3075 1563 2328 
Q 1563 1588 1938 1184 
Q 2313 781 3003 781 
Q 3191 781 3352 804 
Q 3513 828 3641 878 
L 3641 1784 
L 2906 1784 
L 2906 2591 
L 4781 2591 
L 4781 347 
z
" transform="scale(0.015625)"/>
      <path id="DejaVuSans-Bold-26" d="M 4288 256 
Q 3956 84 3597 -3 
Q 3238 -91 2847 -91 
Q 1681 -91 1000 561 
Q 319 1213 319 2328 
Q 319 3447 1000 4098 
Q 1681 4750 2847 4750 
Q 3238 4750 3597 4662 
Q 3956 4575 4288 4403 
L 4288 3438 
Q 3953 3666 3628 3772 
Q 3303 3878 2944 3878 
Q 2300 3878 1931 3465 
Q 1563 3053 1563 2328 
Q 1563 1606 1931 1193 
Q 2300 781 2944 781 
Q 3303 781 3628 887 
Q 3953 994 4288 1222 
L 4288 256 
z
" transform="scale(0.015625)"/>
      <path id="DejaVuSans-Bold-57" d="M 1759 4494 
L 1759 3500 
L 2913 3500 
L 2913 2700 
L 1759 2700 
L 1759 1216 
Q 1759 972 1856 886 
Q 1953 800 2241 800 
L 2816 800 
L 2816 0 
L 1856 0 
Q 1194 0 917 276 
Q 641 553 641 1216 
L 641 2700 
L 84 2700 
L 84 3500 
L 641 3500 
L 641 4494 
L 1759 4494 
z
" transform="scale(0.015625)"/>
      <path id="DejaVuSans-Bold-48" d="M 4031 1759 
L 4031 1441 
L 1416 1441 
Q 1456 1047 1700 850 
Q 1944 653 2381 653 
Q 2734 653 3104 758 
Q 3475 863 3866 1075 
L 3866 213 
Q 3469 63 3072 -14 
Q 2675 -91 2278 -91 
Q 1328 -91 801 392 
Q 275 875 275 1747 
Q 275 2603 792 3093 
Q 1309 3584 2216 3584 
Q 3041 3584 3536 3087 
Q 4031 2591 4031 1759 
z
M 2881 2131 
Q 2881 2450 2695 2645 
Q 2509 2841 2209 2841 
Q 1884 2841 1681 2658 
Q 1478 2475 1428 2131 
L 2881 2131 
z
" transform="scale(0.015625)"/>
     </defs>
     <use xlink:href="#DejaVuSans-Bold-36"/>
     <use xlink:href="#DejaVuSans-Bold-4f" transform="translate(72.015625 0)"/>
     <use xlink:href="#DejaVuSans-Bold-4c" transform="translate(106.296875 0)"/>
     <use xlink:href="#DejaVuSans-Bold-47" transform="translate(140.578125 0)"/>
     <use xlink:href="#DejaVuSans-Bold-4c" transform="translate(212.15625 0)"/>
     <use xlink:href="#DejaVuSans-Bold-51" transform="translate(246.4375 0)"/>
     <use xlink:href="#DejaVuSans-Bold-4a" transform="translate(317.625 0)"/>
     <use xlink:href="#DejaVuSans-Bold-3" transform="translate(389.203125 0)"/>
     <use xlink:href="#DejaVuSans-Bold-3a" transform="translate(424.015625 0)"/>
     <use xlink:href="#DejaVuSans-Bold-4c" transform="translate(534.3125 0)"/>
     <use xlink:href="#DejaVuSans-Bold-51" transform="translate(568.59375 0)"/>
     <use xlink:href="#DejaVuSans-Bold-47" transform="translate(639.78125 0)"/>
     <use xlink:href="#DejaVuSans-Bold-52" transform="translate(711.359375 0)"/>
     <use xlink:href="#DejaVuSans-Bold-5a" transform="translate(780.0625 0)"/>
     <use xlink:href="#DejaVuSans-Bold-3" transform="translate(872.453125 0)"/>
     <use xlink:href="#DejaVuSans-Bold-2a" transform="translate(907.265625 0)"/>
     <use xlink:href="#DejaVuSans-Bold-26" transform="translate(989.34375 0)"/>
     <use xlink:href="#DejaVuSans-Bold-3" transform="translate(1062.734375 0)"/>
     <use xlink:href="#DejaVuSans-Bold-26" transform="translate(1097.546875 0)"/>
     <use xlink:href="#DejaVuSans-Bold-52" transform="translate(1170.9375 0)"/>
     <use xlink:href="#DejaVuSans-Bold-51" transform="translate(1239.640625 0)"/>
     <use xlink:href="#DejaVuSans-Bold-57" transform="translate(1310.828125 0)"/>
     <use xlink:href="#DejaVuSans-Bold-48" transform="translate(1358.625 0)"/>
     <use xlink:href="#DejaVuSans-Bold-51" transform="translate(1426.453125 0)"/>
     <use xlink:href="#DejaVuSans-Bold-57" transform="translate(1497.640625 0)"/>
    </g>
   </g>
  </g>
 </g>
 <defs>
  <clipPath id="p719ee023bd">
   <rect x="49.2875" y="26.877187" width="799.96" height="285.72"/>
  </clipPath>
 </defs>
</svg>
